<svg xmlns="http://www.w3.org/2000/svg" viewBox="0 0 80 52" aria-hidden="true"><defs><linearGradient id="g" gradientUnits="userSpaceOnUse" x1="0" y1="0" x2="0" y2="52"><stop offset="0%" stop-color="#F1DFA4"/><stop offset="45%" stop-color="#D4AF37"/><stop offset="100%" stop-color="#8C6239"/></linearGradient></defs>
<g fill="none" stroke="url(#g)" stroke-width="2.6" stroke-linecap="round" stroke-linejoin="round">
<path d="M6 24 C 18 8 46 6 62 18 C 66 21 70 24 74 26 C 62 36 40 42 22 34 C 14 30 8 27 6 24 Z"/>
<circle cx="40" cy="24" r="7.5" fill="url(#g)" stroke="none"/>
<path d="M6 24 C 14 12 30 4 48 5 C 58 6 68 12 76 20"/>
<path d="M44 38 C 42 46 34 50 26 48"/>
<path d="M56 36 C 60 40 66 44 70 50 C 72 44 70 40 66 36"/>
<path d="M56 36 C 60 34 66 32 72 32"/>
</g></svg>
